<svg width="83" height="76" viewBox="0 0 83 76" fill="none" xmlns="http://www.w3.org/2000/svg">
<mask id="mask0_7_220" style="mask-type:luminance" maskUnits="userSpaceOnUse" x="16" y="0" width="50" height="49">
<path d="M16.9823 0.668701H65.1526V48.9H16.9823V0.668701Z" fill="white"/>
</mask>
<g mask="url(#mask0_7_220)">
<mask id="mask1_7_220" style="mask-type:luminance" maskUnits="userSpaceOnUse" x="17" y="0" width="49" height="49">
<path fill-rule="evenodd" clip-rule="evenodd" d="M25.9339 36.3937C24.6182 34.3937 23.6307 32.1656 23.0432 29.7718C22.5651 28.1093 22.3135 26.3593 22.3135 24.5562C22.3135 22.0765 22.7917 19.7077 23.662 17.5187C26.601 9.28118 34.4604 3.38899 43.6901 3.38899C44.6464 3.38899 45.587 3.45149 46.5042 3.57649V1.44368C44.7573 1.03586 42.9307 0.823364 41.0573 0.823364C27.7995 0.823364 17.0479 11.5874 17.0479 24.8609C17.0479 38.1359 27.7995 48.8999 41.0573 48.8999C46.5901 48.8999 51.6838 47.0249 55.7432 43.8781C55.7901 43.839 55.8448 43.7999 55.8917 43.7609C61.3682 39.4452 64.926 32.8015 65.0682 25.3171L64.9495 25.1827C64.7854 32.1812 61.2432 38.3468 55.8917 42.114C54.8026 42.8827 54.2542 43.2202 52.8901 43.8702C50.1089 45.2124 46.9823 45.9656 43.6823 45.9656C39.6948 45.9656 35.9573 44.8671 32.7682 42.9452C30.9026 41.8312 29.2339 40.4343 27.7917 38.8187C27.5167 38.5124 27.2589 38.1984 26.9995 37.8765C26.812 37.6343 26.6245 37.3906 26.4432 37.139C26.2635 36.889 26.0917 36.6374 25.9182 36.3781L25.9339 36.3937Z" fill="white"/>
</mask>
<g mask="url(#mask1_7_220)">
<path d="M17.0479 0.823364V48.8999H65.0682V0.823364H17.0479Z" fill="url(#paint0_linear_7_220)"/>
</g>
</g>
<mask id="mask2_7_220" style="mask-type:luminance" maskUnits="userSpaceOnUse" x="47" y="0" width="17" height="30">
<path d="M47.1526 0H63.5526V29.0688H47.1526V0Z" fill="white"/>
</mask>
<g mask="url(#mask2_7_220)">
<mask id="mask3_7_220" style="mask-type:luminance" maskUnits="userSpaceOnUse" x="47" y="0" width="17" height="29">
<path fill-rule="evenodd" clip-rule="evenodd" d="M47.437 7.0375V28.125L47.9463 28.6984L54.9745 23.4094V0H47.437V7.0375ZM55.8995 8.80156V12.3562C57.1057 13.6656 58.1166 15.1484 58.901 16.7578L62.2229 16.3656C60.7963 13.3766 58.6104 10.7797 55.8995 8.80156ZM55.8995 7.24844C59.1041 9.5 61.651 12.6078 63.226 16.2469L63.476 16.2156C61.9088 12.1438 59.2682 8.60625 55.8995 5.95469V7.24844Z" fill="white"/>
</mask>
<g mask="url(#mask3_7_220)">
<path d="M47.437 0V28.6984H63.476V0H47.437Z" fill="url(#paint1_linear_7_220)"/>
</g>
</g>
<mask id="mask4_7_220" style="mask-type:luminance" maskUnits="userSpaceOnUse" x="22" y="4" width="43" height="41">
<path d="M22.3526 4.6687H64.3526V44.6687H22.3526V4.6687Z" fill="white"/>
</mask>
<g mask="url(#mask4_7_220)">
<mask id="mask5_7_220" style="mask-type:luminance" maskUnits="userSpaceOnUse" x="22" y="4" width="43" height="41">
<path fill-rule="evenodd" clip-rule="evenodd" d="M41.8026 6.1968C43.4323 6.1968 45.0073 6.40149 46.512 6.77805V4.95774C45.4308 4.79368 44.3261 4.70618 43.1979 4.70618C34.2714 4.70618 26.6557 10.0343 23.662 17.5265C22.862 19.7624 22.4323 22.1702 22.4323 24.689C22.4323 26.4468 22.6432 28.1484 23.0432 29.7812C23.7089 32.1109 24.8057 34.2687 26.2557 36.1671C26.4432 36.4093 26.6323 36.6531 26.8354 36.889C27.0307 37.1234 27.2354 37.3593 27.4464 37.5859L27.8151 37.9781C29.8917 40.1281 32.462 41.8468 35.3526 42.9609C37.7745 43.8937 40.4308 44.4124 43.2058 44.4124C44.8589 44.4124 46.4651 44.2312 48.0089 43.8859C49.0589 43.6515 50.0776 43.3452 51.0573 42.9609C52.4433 42.4265 53.7604 41.7531 54.9823 40.9515C55.2964 40.7484 55.6011 40.5359 55.9073 40.3171C60.8839 36.6843 64.0886 30.9812 64.0886 24.5562C64.0886 24.4452 64.0886 24.3281 64.0886 24.2187L63.0698 23.089L60.7339 24.9327C60.6714 29.5687 58.8542 33.7968 55.9073 37.0062C55.6089 37.3281 55.3042 37.6421 54.9823 37.9468C52.8823 39.9406 50.3042 41.4546 47.4448 42.3249C47.1386 42.4187 46.8339 42.5062 46.5198 42.5843C42.9386 43.4781 38.9886 43.3452 35.3526 42.0577C32.1479 40.9202 29.3198 38.9046 27.2979 36.5437C27.0948 36.3077 26.8979 36.0718 26.7104 35.8296C24.3042 32.7296 22.8792 28.8624 22.8792 24.6812C22.8792 14.4749 31.3573 6.1968 41.8104 6.1968H41.8026Z" fill="white"/>
</mask>
<g mask="url(#mask5_7_220)">
<path d="M22.4323 4.70618V44.4124H64.0886V4.70618H22.4323Z" fill="url(#paint2_linear_7_220)"/>
</g>
</g>
<mask id="mask6_7_220" style="mask-type:luminance" maskUnits="userSpaceOnUse" x="37" y="9" width="9" height="20">
<path d="M37.5526 9.06873H45.5526V28.2687H37.5526V9.06873Z" fill="white"/>
</mask>
<g mask="url(#mask6_7_220)">
<mask id="mask7_7_220" style="mask-type:luminance" maskUnits="userSpaceOnUse" x="37" y="9" width="9" height="19">
<path fill-rule="evenodd" clip-rule="evenodd" d="M45.1635 25.5828V9.12341H37.6182V27.9375L42.7667 24.2187L43.4167 23.6297L43.4792 23.7L44.7167 25.089L45.1635 25.5828Z" fill="white"/>
</mask>
<g mask="url(#mask7_7_220)">
<path d="M37.6182 9.12341V27.9375H45.1635V9.12341H37.6182Z" fill="url(#paint3_linear_7_220)"/>
</g>
</g>
<mask id="mask8_7_220" style="mask-type:luminance" maskUnits="userSpaceOnUse" x="27" y="17" width="9" height="19">
<path d="M27.5526 17.4688H35.5526V35.0688H27.5526V17.4688Z" fill="white"/>
</mask>
<g mask="url(#mask8_7_220)">
<mask id="mask9_7_220" style="mask-type:luminance" maskUnits="userSpaceOnUse" x="27" y="17" width="9" height="19">
<path fill-rule="evenodd" clip-rule="evenodd" d="M35.3448 29.5844V17.55H27.8073V35.0375L35.3448 29.5844Z" fill="white"/>
</mask>
<g mask="url(#mask9_7_220)">
<path d="M27.8073 17.55V35.0375H35.3448V17.55H27.8073Z" fill="url(#paint4_linear_7_220)"/>
</g>
</g>
<mask id="mask10_7_220" style="mask-type:luminance" maskUnits="userSpaceOnUse" x="28" y="16" width="40" height="27">
<path d="M28.3526 16.6687H67.3823V42.2687H28.3526V16.6687Z" fill="white"/>
</mask>
<g mask="url(#mask10_7_220)">
<mask id="mask11_7_220" style="mask-type:luminance" maskUnits="userSpaceOnUse" x="28" y="16" width="40" height="27">
<path fill-rule="evenodd" clip-rule="evenodd" d="M61.1338 23.4344L63.1635 21.825L64.9338 23.6453V23.6297C64.9651 23.6765 65.0042 23.7234 65.0526 23.7703L67.3088 16.6859C65.7495 16.875 64.1823 17.0547 62.6229 17.2437L61.1573 17.4156L59.3073 17.6359C59.426 17.9187 59.5354 18.2 59.6448 18.4906C59.8963 19.1734 60.0995 19.8719 60.2635 20.5859L55.8995 23.8656L54.9745 24.564L47.8198 29.9453L47.4292 29.514L46.5042 28.4859L45.1557 26.9797L43.9573 25.6375L43.3385 24.9484L42.5854 25.489L37.6182 29.0828L35.3448 30.7297L28.4573 35.7109C30.3932 37.8687 32.7354 39.5719 35.3448 40.6625V34.6922L37.6182 32.8797V41.439C39.0448 41.8156 40.5245 42.0109 42.0448 42.0109C43.1026 42.0109 44.1448 41.9172 45.1557 41.7297V32.1656L46.5042 33.0672L47.4292 33.6875V41.1562C50.2651 40.2312 52.8354 38.5906 54.9667 36.425V28.314L55.8917 27.5844L60.6948 23.7781L61.126 23.4344H61.1338Z" fill="white"/>
</mask>
<g mask="url(#mask11_7_220)">
<path d="M28.4573 16.6859V42.0109H67.3088V16.6859H28.4573Z" fill="url(#paint5_linear_7_220)"/>
</g>
</g>
<path d="M14.8375 71.4549V69.0034H13.5281L10.2156 58.3752H3.03125V60.7893H3.79844L1.27187 69.0034H0V71.4549H5.95V69.0034H4.49063L4.88281 67.7315H8.71875L9.1125 69.0034H7.33438V71.4549H14.8375ZM5.575 65.4862L6.79219 61.444L8.02656 65.4862H5.575Z" fill="#545454"/>
<path d="M15.4909 75.0659C15.7893 75.1784 16.1268 75.2721 16.4815 75.2721C20.3362 75.2721 21.7581 73.3815 21.7581 70.0706V60.8268H23.3112V58.3752H16.2753V60.8268H17.8847V70.0706C17.8847 72.0721 17.2675 72.7643 16.3315 72.7643C15.9956 72.7643 15.7331 72.7081 15.4909 72.5956V75.0659Z" fill="#545454"/>
<path d="M30.7576 71.7924C34.9858 71.7924 37.3436 69.2096 37.3436 64.9815C37.3436 60.7706 35.2108 58.0206 30.6264 58.0206C26.753 58.0206 24.0592 60.8081 24.0592 64.8503C24.0592 69.5284 26.8467 71.7924 30.7576 71.7924ZM30.7576 68.8534C29.5592 68.8534 28.6811 67.3003 28.6811 64.8503C28.6811 62.5299 29.467 60.8831 30.6076 60.9018C32.0483 60.9018 32.6655 62.7174 32.6655 64.9815C32.6655 67.3003 31.9358 68.8534 30.7576 68.8534Z" fill="#545454"/>
<path d="M44.6917 68.5581C45.0417 68.5581 45.3823 68.48 45.7167 68.3206C46.0542 68.1581 46.3948 67.8862 46.7417 67.5019L47.8167 68.5269C47.3823 69.0815 46.8885 69.5019 46.3354 69.7894C45.7854 70.0722 45.2182 70.2144 44.6354 70.2144C44.1104 70.2144 43.6167 70.105 43.1542 69.8894C42.6917 69.6737 42.2885 69.3831 41.9479 69.0206C41.6104 68.655 41.3432 68.2269 41.1479 67.7394C40.9557 67.2519 40.8604 66.7362 40.8604 66.1894C40.8604 65.6394 40.9604 65.1237 41.1604 64.6394C41.3635 64.1565 41.637 63.7331 41.9792 63.3706C42.3245 63.005 42.7307 62.7144 43.1979 62.5019C43.6635 62.2894 44.162 62.1831 44.6917 62.1831C45.1792 62.1831 45.6432 62.2753 46.0854 62.4581C46.5307 62.6425 46.9635 62.9456 47.3854 63.3706L46.4229 64.5394C46.1135 64.2565 45.8229 64.0675 45.5479 63.9706C45.276 63.8706 44.9917 63.8206 44.6917 63.8206C44.3917 63.8206 44.1073 63.8831 43.8417 64.0081C43.5745 64.13 43.3417 64.2956 43.1417 64.5081C42.9448 64.7206 42.7885 64.9737 42.6729 65.2644C42.5604 65.5519 42.5042 65.8612 42.5042 66.1894C42.5042 66.519 42.5604 66.8269 42.6729 67.1144C42.7885 67.3987 42.9448 67.6487 43.1417 67.8644C43.3417 68.0769 43.5745 68.2456 43.8417 68.3706C44.1073 68.4956 44.3917 68.5581 44.6917 68.5581Z" fill="#545454"/>
<path d="M51.3545 64.4768C51.742 64.4768 52.106 64.5518 52.4482 64.7018C52.7935 64.8518 53.0935 65.0581 53.3482 65.3206C53.606 65.58 53.8107 65.8815 53.9607 66.2268C54.1107 66.5737 54.1857 66.944 54.1857 67.3393C54.1857 67.7362 54.1107 68.1065 53.9607 68.4518C53.8107 68.7987 53.606 69.1018 53.3482 69.3643C53.0935 69.6237 52.7935 69.8268 52.4482 69.9768C52.106 70.1268 51.742 70.2018 51.3545 70.2018C50.9576 70.2018 50.5873 70.1268 50.242 69.9768C49.8998 69.8268 49.6013 69.6237 49.3482 69.3643C49.0935 69.1018 48.892 68.7987 48.742 68.4518C48.592 68.1065 48.517 67.7362 48.517 67.3393C48.517 66.944 48.592 66.5737 48.742 66.2268C48.892 65.8815 49.0935 65.58 49.3482 65.3206C49.6013 65.0581 49.8998 64.8518 50.242 64.7018C50.5873 64.5518 50.9576 64.4768 51.3545 64.4768ZM51.3545 68.8768C51.5373 68.8768 51.7076 68.8425 51.867 68.7706C52.0248 68.6956 52.1623 68.594 52.2795 68.4643C52.3998 68.3362 52.4951 68.1815 52.567 68.0018C52.6373 67.8237 52.6732 67.6253 52.6732 67.4081C52.6732 67.1878 52.6373 66.9831 52.567 66.7956C52.4951 66.605 52.3998 66.4378 52.2795 66.2956C52.1623 66.1503 52.0248 66.0362 51.867 65.9518C51.7076 65.869 51.5373 65.8268 51.3545 65.8268C51.1701 65.8268 50.9982 65.869 50.8357 65.9518C50.6763 66.0362 50.5373 66.1503 50.417 66.2956C50.2951 66.4378 50.1998 66.605 50.1295 66.7956C50.0623 66.9831 50.0295 67.1878 50.0295 67.4081C50.0295 67.6253 50.0623 67.8237 50.1295 68.0018C50.1998 68.1815 50.2951 68.3362 50.417 68.4643C50.5373 68.594 50.6763 68.6956 50.8357 68.7706C50.9982 68.8425 51.1701 68.8768 51.3545 68.8768Z" fill="#545454"/>
<path d="M57.8593 64.6331C58.0625 64.6331 58.2875 64.6628 58.5343 64.7206C58.7843 64.78 59.0187 64.8893 59.2406 65.0518C59.4609 65.2112 59.6468 65.4331 59.7968 65.7206C59.9468 66.005 60.0218 66.3737 60.0218 66.8268V70.0706H58.4968V66.8768C58.4968 66.7112 58.4672 66.569 58.4093 66.4518C58.3547 66.3362 58.2812 66.2425 58.1906 66.1706C58.0984 66.1003 57.9937 66.0503 57.8781 66.0206C57.7609 65.9878 57.6437 65.9706 57.5281 65.9706C57.4312 65.9706 57.3281 65.9878 57.2156 66.0206C57.1031 66.0503 56.9968 66.1018 56.8968 66.1768C56.8 66.2518 56.7187 66.3487 56.6531 66.4643C56.5859 66.5815 56.5531 66.719 56.5531 66.8768V70.0706H55.0406V64.6331H56.3343L56.5531 65.0456C56.7281 64.9206 56.9234 64.8206 57.1406 64.7456C57.3609 64.6706 57.6 64.6331 57.8593 64.6331Z" fill="#545454"/>
<path d="M63.8461 64.6331C64.0492 64.6331 64.2742 64.6628 64.5211 64.7206C64.7711 64.78 65.0055 64.8893 65.2273 65.0518C65.4477 65.2112 65.6336 65.4331 65.7836 65.7206C65.9336 66.005 66.0086 66.3737 66.0086 66.8268V70.0706H64.4836V66.8768C64.4836 66.7112 64.4539 66.569 64.3961 66.4518C64.3414 66.3362 64.268 66.2425 64.1773 66.1706C64.0852 66.1003 63.9805 66.0503 63.8648 66.0206C63.7477 65.9878 63.6305 65.9706 63.5148 65.9706C63.418 65.9706 63.3148 65.9878 63.2023 66.0206C63.0898 66.0503 62.9836 66.1018 62.8836 66.1768C62.7867 66.2518 62.7055 66.3487 62.6398 66.4643C62.5727 66.5815 62.5398 66.719 62.5398 66.8768V70.0706H61.0273V64.6331H62.3211L62.5398 65.0456C62.7148 64.9206 62.9102 64.8206 63.1273 64.7456C63.3477 64.6706 63.5867 64.6331 63.8461 64.6331Z" fill="#545454"/>
<path d="M69.6891 64.4768C70.097 64.4768 70.4704 64.5612 70.8079 64.7268C71.1454 64.8893 71.4345 65.105 71.6766 65.3706C71.9173 65.6378 72.1032 65.9456 72.2329 66.2956C72.3657 66.6425 72.4329 66.9987 72.4329 67.3643C72.4329 67.5815 72.4032 67.8143 72.3454 68.0643H68.4579C68.6032 68.3143 68.811 68.5253 69.0829 68.6956C69.3532 68.8675 69.647 68.9518 69.9641 68.9518C70.2766 68.9518 70.5516 68.9268 70.7891 68.8768C71.0266 68.8237 71.2516 68.7565 71.4641 68.6768L71.9704 69.6081C71.6985 69.8003 71.3891 69.9487 71.0391 70.0518C70.6923 70.1518 70.3235 70.2018 69.9329 70.2018C69.4985 70.2018 69.0954 70.1268 68.7204 69.9768C68.3485 69.8268 68.0235 69.6253 67.7454 69.3706C67.4704 69.1128 67.2516 68.8081 67.0891 68.4581C66.9266 68.1081 66.8454 67.7362 66.8454 67.3393C66.8454 66.9518 66.9173 66.5862 67.0641 66.2393C67.2141 65.8893 67.4173 65.5862 67.6766 65.3268C67.9345 65.069 68.2345 64.8628 68.5766 64.7081C68.922 64.555 69.2923 64.4768 69.6891 64.4768ZM70.9266 66.8893C70.8391 66.5768 70.6798 66.3237 70.4516 66.1268C70.2266 65.9268 69.972 65.8268 69.6891 65.8268C69.397 65.8268 69.1329 65.9268 68.8954 66.1268C68.6579 66.3237 68.4954 66.5768 68.4079 66.8893H70.9266Z" fill="#545454"/>
<path d="M76.2555 65.8268C76.0711 65.8268 75.8992 65.869 75.7367 65.9518C75.5773 66.0362 75.4383 66.1503 75.318 66.2956C75.1961 66.4378 75.1008 66.605 75.0305 66.7956C74.9633 66.9831 74.9305 67.1878 74.9305 67.4081C74.9305 67.6253 74.9633 67.8237 75.0305 68.0018C75.1008 68.1815 75.1961 68.3362 75.318 68.4643C75.4383 68.594 75.5773 68.6956 75.7367 68.7706C75.8992 68.8425 76.0711 68.8768 76.2555 68.8768C76.4836 68.8768 76.7055 68.8253 76.918 68.7206C77.1336 68.6128 77.3195 68.4628 77.4742 68.2706L78.4055 69.1956C78.1508 69.5003 77.8367 69.744 77.4617 69.9268C77.0898 70.1097 76.6883 70.2018 76.2555 70.2018C75.8586 70.2018 75.4883 70.1268 75.143 69.9768C74.8008 69.8268 74.5023 69.6237 74.2492 69.3643C73.9945 69.1018 73.793 68.7987 73.643 68.4518C73.493 68.1065 73.418 67.7362 73.418 67.3393C73.418 66.944 73.493 66.5737 73.643 66.2268C73.793 65.8815 73.9945 65.58 74.2492 65.3206C74.5023 65.0581 74.8008 64.8518 75.143 64.7018C75.4883 64.5518 75.8586 64.4768 76.2555 64.4768C76.7008 64.4768 77.1133 64.5737 77.493 64.7643C77.8758 64.9518 78.1992 65.2112 78.4617 65.5393L77.4055 66.3518C77.1961 66.1565 77.0055 66.0206 76.8305 65.9456C76.6586 65.8675 76.468 65.8268 76.2555 65.8268Z" fill="#545454"/>
<path d="M81.2884 68.1206C81.2884 68.3753 81.3666 68.5737 81.5259 68.7143C81.6838 68.8518 81.89 68.9206 82.1447 68.9206C82.3478 68.9206 82.5525 68.88 82.7572 68.7956V70.0706C82.5728 70.1284 82.3791 70.1768 82.1759 70.2143C81.9713 70.255 81.7666 70.2768 81.5634 70.2768C81.3291 70.2768 81.1072 70.2471 80.8947 70.1893C80.6822 70.13 80.49 70.0315 80.3197 69.8893C80.1525 69.7487 80.0197 69.5581 79.9197 69.3206C79.8228 69.0831 79.7759 68.7893 79.7759 68.4393V65.9768H78.9947V64.9581L79.7759 64.6331V63.4143H81.2884V64.6331H82.7572V65.9768H81.2884V68.1206Z" fill="#545454"/>
<defs>
<linearGradient id="paint0_linear_7_220" x1="51.9657" y1="48.8995" x2="51.9657" y2="0.823273" gradientUnits="userSpaceOnUse">
<stop stop-color="#003F6D"/>
<stop offset="0.03125" stop-color="#003F6D"/>
<stop offset="0.0625" stop-color="#003F6E"/>
<stop offset="0.09375" stop-color="#00406E"/>
<stop offset="0.125" stop-color="#00406F"/>
<stop offset="0.15625" stop-color="#004070"/>
<stop offset="0.1875" stop-color="#004170"/>
<stop offset="0.21875" stop-color="#004171"/>
<stop offset="0.25" stop-color="#004171"/>
<stop offset="0.28125" stop-color="#004272"/>
<stop offset="0.3125" stop-color="#004272"/>
<stop offset="0.34375" stop-color="#004273"/>
<stop offset="0.375" stop-color="#004373"/>
<stop offset="0.40625" stop-color="#004374"/>
<stop offset="0.4375" stop-color="#004374"/>
<stop offset="0.46875" stop-color="#004375"/>
<stop offset="0.5" stop-color="#004475"/>
<stop offset="0.53125" stop-color="#004476"/>
<stop offset="0.5625" stop-color="#004477"/>
<stop offset="0.59375" stop-color="#004577"/>
<stop offset="0.625" stop-color="#004578"/>
<stop offset="0.65625" stop-color="#004578"/>
<stop offset="0.6875" stop-color="#004679"/>
<stop offset="0.71875" stop-color="#004679"/>
<stop offset="0.75" stop-color="#00467A"/>
<stop offset="0.78125" stop-color="#00477A"/>
<stop offset="0.8125" stop-color="#00477B"/>
<stop offset="0.84375" stop-color="#00477B"/>
<stop offset="0.875" stop-color="#00487C"/>
<stop offset="0.90625" stop-color="#00487C"/>
<stop offset="0.9375" stop-color="#00487D"/>
<stop offset="0.96875" stop-color="#00497D"/>
<stop offset="1" stop-color="#00497E"/>
</linearGradient>
<linearGradient id="paint1_linear_7_220" x1="68.7504" y1="28.6978" x2="68.7504" y2="-0.000415663" gradientUnits="userSpaceOnUse">
<stop stop-color="#6A6A6B"/>
<stop offset="0.03125" stop-color="#6B6B6B"/>
<stop offset="0.0625" stop-color="#6B6B6B"/>
<stop offset="0.09375" stop-color="#6C6C6C"/>
<stop offset="0.125" stop-color="#6C6C6D"/>
<stop offset="0.15625" stop-color="#6D6D6D"/>
<stop offset="0.1875" stop-color="#6E6E6E"/>
<stop offset="0.21875" stop-color="#6E6E6F"/>
<stop offset="0.25" stop-color="#6F6F6F"/>
<stop offset="0.28125" stop-color="#6F6F70"/>
<stop offset="0.3125" stop-color="#707070"/>
<stop offset="0.34375" stop-color="#717171"/>
<stop offset="0.375" stop-color="#717172"/>
<stop offset="0.40625" stop-color="#727272"/>
<stop offset="0.4375" stop-color="#727273"/>
<stop offset="0.46875" stop-color="#737374"/>
<stop offset="0.5" stop-color="#747474"/>
<stop offset="0.53125" stop-color="#747475"/>
<stop offset="0.5625" stop-color="#757575"/>
<stop offset="0.59375" stop-color="#757576"/>
<stop offset="0.625" stop-color="#767677"/>
<stop offset="0.65625" stop-color="#767677"/>
<stop offset="0.6875" stop-color="#777778"/>
<stop offset="0.71875" stop-color="#787878"/>
<stop offset="0.75" stop-color="#787879"/>
<stop offset="0.78125" stop-color="#79797A"/>
<stop offset="0.8125" stop-color="#79797A"/>
<stop offset="0.84375" stop-color="#7A7A7B"/>
<stop offset="0.875" stop-color="#7B7B7C"/>
<stop offset="0.90625" stop-color="#7B7B7C"/>
<stop offset="0.921875" stop-color="#7C7C7D"/>
<stop offset="0.929687" stop-color="#7C7C7D"/>
<stop offset="0.933594" stop-color="#7D7D7E"/>
<stop offset="0.9375" stop-color="#7D7D7E"/>
<stop offset="0.941406" stop-color="#7E7E7F"/>
<stop offset="0.945313" stop-color="#7E7E80"/>
<stop offset="0.949219" stop-color="#7F7F80"/>
<stop offset="0.953125" stop-color="#808081"/>
<stop offset="0.957031" stop-color="#808081"/>
<stop offset="0.960937" stop-color="#818182"/>
<stop offset="0.964844" stop-color="#818183"/>
<stop offset="0.96875" stop-color="#828283"/>
<stop offset="0.972656" stop-color="#828284"/>
<stop offset="0.976563" stop-color="#838384"/>
<stop offset="0.980469" stop-color="#838385"/>
<stop offset="0.984375" stop-color="#848485"/>
<stop offset="0.988281" stop-color="#858586"/>
<stop offset="0.992187" stop-color="#858587"/>
<stop offset="0.996094" stop-color="#868687"/>
<stop offset="1" stop-color="#868688"/>
</linearGradient>
<linearGradient id="paint2_linear_7_220" x1="77.7619" y1="44.412" x2="77.7619" y2="4.70672" gradientUnits="userSpaceOnUse">
<stop stop-color="#6A6A6B"/>
<stop offset="0.03125" stop-color="#6B6B6B"/>
<stop offset="0.0625" stop-color="#6B6B6B"/>
<stop offset="0.09375" stop-color="#6C6C6C"/>
<stop offset="0.125" stop-color="#6C6C6D"/>
<stop offset="0.15625" stop-color="#6D6D6D"/>
<stop offset="0.1875" stop-color="#6E6E6E"/>
<stop offset="0.21875" stop-color="#6E6E6F"/>
<stop offset="0.25" stop-color="#6F6F6F"/>
<stop offset="0.28125" stop-color="#6F6F70"/>
<stop offset="0.3125" stop-color="#707070"/>
<stop offset="0.34375" stop-color="#717171"/>
<stop offset="0.375" stop-color="#717172"/>
<stop offset="0.40625" stop-color="#727272"/>
<stop offset="0.4375" stop-color="#727273"/>
<stop offset="0.46875" stop-color="#737374"/>
<stop offset="0.5" stop-color="#747474"/>
<stop offset="0.53125" stop-color="#747475"/>
<stop offset="0.5625" stop-color="#757575"/>
<stop offset="0.59375" stop-color="#757576"/>
<stop offset="0.625" stop-color="#767677"/>
<stop offset="0.65625" stop-color="#767677"/>
<stop offset="0.6875" stop-color="#777778"/>
<stop offset="0.71875" stop-color="#787878"/>
<stop offset="0.75" stop-color="#787879"/>
<stop offset="0.78125" stop-color="#79797A"/>
<stop offset="0.8125" stop-color="#79797A"/>
<stop offset="0.84375" stop-color="#7A7A7B"/>
<stop offset="0.875" stop-color="#7B7B7C"/>
<stop offset="0.90625" stop-color="#7B7B7C"/>
<stop offset="0.921875" stop-color="#7C7C7D"/>
<stop offset="0.929688" stop-color="#7C7C7D"/>
<stop offset="0.933594" stop-color="#7D7D7E"/>
<stop offset="0.9375" stop-color="#7D7D7E"/>
<stop offset="0.941406" stop-color="#7E7E7F"/>
<stop offset="0.945312" stop-color="#7E7E80"/>
<stop offset="0.949219" stop-color="#7F7F80"/>
<stop offset="0.953125" stop-color="#808081"/>
<stop offset="0.957031" stop-color="#808081"/>
<stop offset="0.960938" stop-color="#818182"/>
<stop offset="0.964844" stop-color="#818183"/>
<stop offset="0.96875" stop-color="#828283"/>
<stop offset="0.972656" stop-color="#828284"/>
<stop offset="0.976563" stop-color="#838384"/>
<stop offset="0.980469" stop-color="#838385"/>
<stop offset="0.984375" stop-color="#848485"/>
<stop offset="0.988281" stop-color="#858586"/>
<stop offset="0.992188" stop-color="#858587"/>
<stop offset="0.996094" stop-color="#868687"/>
<stop offset="1" stop-color="#868688"/>
</linearGradient>
<linearGradient id="paint3_linear_7_220" x1="47.6402" y1="27.9368" x2="47.6402" y2="9.12369" gradientUnits="userSpaceOnUse">
<stop stop-color="#6A6A6B"/>
<stop offset="0.03125" stop-color="#6B6B6B"/>
<stop offset="0.0625" stop-color="#6B6B6B"/>
<stop offset="0.09375" stop-color="#6C6C6C"/>
<stop offset="0.125" stop-color="#6C6C6D"/>
<stop offset="0.15625" stop-color="#6D6D6D"/>
<stop offset="0.1875" stop-color="#6E6E6E"/>
<stop offset="0.21875" stop-color="#6E6E6F"/>
<stop offset="0.25" stop-color="#6F6F6F"/>
<stop offset="0.28125" stop-color="#6F6F70"/>
<stop offset="0.3125" stop-color="#707070"/>
<stop offset="0.34375" stop-color="#717171"/>
<stop offset="0.375" stop-color="#717172"/>
<stop offset="0.40625" stop-color="#727272"/>
<stop offset="0.4375" stop-color="#727273"/>
<stop offset="0.46875" stop-color="#737374"/>
<stop offset="0.5" stop-color="#747474"/>
<stop offset="0.53125" stop-color="#747475"/>
<stop offset="0.5625" stop-color="#757575"/>
<stop offset="0.59375" stop-color="#757576"/>
<stop offset="0.625" stop-color="#767677"/>
<stop offset="0.65625" stop-color="#767677"/>
<stop offset="0.6875" stop-color="#777778"/>
<stop offset="0.71875" stop-color="#787878"/>
<stop offset="0.75" stop-color="#787879"/>
<stop offset="0.78125" stop-color="#79797A"/>
<stop offset="0.8125" stop-color="#79797A"/>
<stop offset="0.84375" stop-color="#7A7A7B"/>
<stop offset="0.875" stop-color="#7B7B7C"/>
<stop offset="0.90625" stop-color="#7B7B7C"/>
<stop offset="0.921875" stop-color="#7C7C7D"/>
<stop offset="0.929687" stop-color="#7C7C7D"/>
<stop offset="0.933594" stop-color="#7D7D7E"/>
<stop offset="0.9375" stop-color="#7D7D7E"/>
<stop offset="0.941406" stop-color="#7E7E7F"/>
<stop offset="0.945312" stop-color="#7E7E80"/>
<stop offset="0.949219" stop-color="#7F7F80"/>
<stop offset="0.953125" stop-color="#808081"/>
<stop offset="0.957031" stop-color="#808081"/>
<stop offset="0.960937" stop-color="#818182"/>
<stop offset="0.964844" stop-color="#818183"/>
<stop offset="0.96875" stop-color="#828283"/>
<stop offset="0.972656" stop-color="#828284"/>
<stop offset="0.976562" stop-color="#838384"/>
<stop offset="0.980469" stop-color="#838385"/>
<stop offset="0.984375" stop-color="#848485"/>
<stop offset="0.988281" stop-color="#858586"/>
<stop offset="0.992188" stop-color="#858587"/>
<stop offset="0.996094" stop-color="#868687"/>
<stop offset="1" stop-color="#868688"/>
</linearGradient>
<linearGradient id="paint4_linear_7_220" x1="37.8217" y1="35.0369" x2="37.8217" y2="17.5496" gradientUnits="userSpaceOnUse">
<stop stop-color="#6A6A6B"/>
<stop offset="0.03125" stop-color="#6B6B6B"/>
<stop offset="0.0625" stop-color="#6B6B6B"/>
<stop offset="0.09375" stop-color="#6C6C6C"/>
<stop offset="0.125" stop-color="#6C6C6D"/>
<stop offset="0.15625" stop-color="#6D6D6D"/>
<stop offset="0.1875" stop-color="#6E6E6E"/>
<stop offset="0.21875" stop-color="#6E6E6F"/>
<stop offset="0.25" stop-color="#6F6F6F"/>
<stop offset="0.28125" stop-color="#6F6F70"/>
<stop offset="0.3125" stop-color="#707070"/>
<stop offset="0.34375" stop-color="#717171"/>
<stop offset="0.375" stop-color="#717172"/>
<stop offset="0.40625" stop-color="#727272"/>
<stop offset="0.4375" stop-color="#727273"/>
<stop offset="0.46875" stop-color="#737374"/>
<stop offset="0.5" stop-color="#747474"/>
<stop offset="0.53125" stop-color="#747475"/>
<stop offset="0.5625" stop-color="#757575"/>
<stop offset="0.59375" stop-color="#757576"/>
<stop offset="0.625" stop-color="#767677"/>
<stop offset="0.65625" stop-color="#767677"/>
<stop offset="0.6875" stop-color="#777778"/>
<stop offset="0.71875" stop-color="#787878"/>
<stop offset="0.75" stop-color="#787879"/>
<stop offset="0.78125" stop-color="#79797A"/>
<stop offset="0.8125" stop-color="#79797A"/>
<stop offset="0.84375" stop-color="#7A7A7B"/>
<stop offset="0.875" stop-color="#7B7B7C"/>
<stop offset="0.90625" stop-color="#7B7B7C"/>
<stop offset="0.921875" stop-color="#7C7C7D"/>
<stop offset="0.929688" stop-color="#7C7C7D"/>
<stop offset="0.933594" stop-color="#7D7D7E"/>
<stop offset="0.9375" stop-color="#7D7D7E"/>
<stop offset="0.941406" stop-color="#7E7E7F"/>
<stop offset="0.945312" stop-color="#7E7E80"/>
<stop offset="0.949219" stop-color="#7F7F80"/>
<stop offset="0.953125" stop-color="#808081"/>
<stop offset="0.957031" stop-color="#808081"/>
<stop offset="0.960938" stop-color="#818182"/>
<stop offset="0.964844" stop-color="#818183"/>
<stop offset="0.96875" stop-color="#828283"/>
<stop offset="0.972656" stop-color="#828284"/>
<stop offset="0.976562" stop-color="#838384"/>
<stop offset="0.980469" stop-color="#838385"/>
<stop offset="0.984375" stop-color="#848485"/>
<stop offset="0.988281" stop-color="#858586"/>
<stop offset="0.992188" stop-color="#858587"/>
<stop offset="0.996094" stop-color="#868687"/>
<stop offset="1" stop-color="#868688"/>
</linearGradient>
<linearGradient id="paint5_linear_7_220" x1="56.6986" y1="42.0114" x2="56.6986" y2="16.6866" gradientUnits="userSpaceOnUse">
<stop stop-color="#003F6D"/>
<stop offset="0.03125" stop-color="#003F6D"/>
<stop offset="0.0625" stop-color="#003F6E"/>
<stop offset="0.09375" stop-color="#00406E"/>
<stop offset="0.125" stop-color="#00406F"/>
<stop offset="0.15625" stop-color="#004070"/>
<stop offset="0.1875" stop-color="#004170"/>
<stop offset="0.21875" stop-color="#004171"/>
<stop offset="0.25" stop-color="#004171"/>
<stop offset="0.28125" stop-color="#004272"/>
<stop offset="0.3125" stop-color="#004272"/>
<stop offset="0.34375" stop-color="#004273"/>
<stop offset="0.375" stop-color="#004373"/>
<stop offset="0.40625" stop-color="#004374"/>
<stop offset="0.4375" stop-color="#004374"/>
<stop offset="0.46875" stop-color="#004375"/>
<stop offset="0.5" stop-color="#004475"/>
<stop offset="0.53125" stop-color="#004476"/>
<stop offset="0.5625" stop-color="#004477"/>
<stop offset="0.59375" stop-color="#004577"/>
<stop offset="0.625" stop-color="#004578"/>
<stop offset="0.65625" stop-color="#004578"/>
<stop offset="0.6875" stop-color="#004679"/>
<stop offset="0.71875" stop-color="#004679"/>
<stop offset="0.75" stop-color="#00467A"/>
<stop offset="0.78125" stop-color="#00477A"/>
<stop offset="0.8125" stop-color="#00477B"/>
<stop offset="0.84375" stop-color="#00477B"/>
<stop offset="0.875" stop-color="#00487C"/>
<stop offset="0.90625" stop-color="#00487C"/>
<stop offset="0.9375" stop-color="#00487D"/>
<stop offset="0.96875" stop-color="#00497D"/>
<stop offset="1" stop-color="#00497E"/>
</linearGradient>
</defs>
</svg>
